<svg width="361" height="129" viewBox="0 0 361 129" fill="none" xmlns="http://www.w3.org/2000/svg">
<rect width="361" height="129" rx="30" fill="#F78275"/>
<path d="M33.904 41.728H29.248L28.448 44H26.544L30.528 32.864H32.64L36.624 44H34.704L33.904 41.728ZM33.392 40.24L31.584 35.072L29.76 40.24H33.392ZM42.8043 35.04C43.4976 35.04 44.1163 35.184 44.6603 35.472C45.2149 35.76 45.6469 36.1867 45.9563 36.752C46.2656 37.3173 46.4203 38 46.4203 38.8V44H44.6123V39.072C44.6123 38.2827 44.4149 37.68 44.0203 37.264C43.6256 36.8373 43.0869 36.624 42.4043 36.624C41.7216 36.624 41.1776 36.8373 40.7723 37.264C40.3776 37.68 40.1803 38.2827 40.1803 39.072V44H38.3563V35.184H40.1803V36.192C40.4789 35.8293 40.8576 35.5467 41.3163 35.344C41.7856 35.1413 42.2816 35.04 42.8043 35.04ZM56.6829 35.184L51.2749 48.144H49.3869L51.1789 43.856L47.7069 35.184H49.7389L52.2189 41.904L54.7949 35.184H56.6829ZM70.8236 46.016L68.8716 43.904C68.3916 44.0427 67.8636 44.112 67.2876 44.112C66.253 44.112 65.2983 43.872 64.4236 43.392C63.5596 42.9013 62.8716 42.224 62.3596 41.36C61.8583 40.4853 61.6076 39.504 61.6076 38.416C61.6076 37.328 61.8583 36.352 62.3596 35.488C62.8716 34.624 63.5596 33.952 64.4236 33.472C65.2983 32.9813 66.253 32.736 67.2876 32.736C68.333 32.736 69.2876 32.9813 70.1516 33.472C71.0263 33.952 71.7143 34.624 72.2156 35.488C72.717 36.352 72.9676 37.328 72.9676 38.416C72.9676 39.44 72.7436 40.368 72.2956 41.2C71.8583 42.0213 71.2503 42.6827 70.4716 43.184L73.1436 46.016H70.8236ZM63.4796 38.416C63.4796 39.2373 63.6396 39.9627 63.9596 40.592C64.2903 41.2107 64.7436 41.6907 65.3196 42.032C65.8956 42.3627 66.5516 42.528 67.2876 42.528C68.0236 42.528 68.6796 42.3627 69.2556 42.032C69.8316 41.6907 70.2796 41.2107 70.5996 40.592C70.9303 39.9627 71.0956 39.2373 71.0956 38.416C71.0956 37.5947 70.9303 36.8747 70.5996 36.256C70.2796 35.6373 69.8316 35.1627 69.2556 34.832C68.6796 34.5013 68.0236 34.336 67.2876 34.336C66.5516 34.336 65.8956 34.5013 65.3196 34.832C64.7436 35.1627 64.2903 35.6373 63.9596 36.256C63.6396 36.8747 63.4796 37.5947 63.4796 38.416ZM82.7934 35.184V44H80.9694V42.96C80.6814 43.3227 80.3027 43.6107 79.8334 43.824C79.3747 44.0267 78.884 44.128 78.3614 44.128C77.668 44.128 77.044 43.984 76.4894 43.696C75.9454 43.408 75.5134 42.9813 75.1934 42.416C74.884 41.8507 74.7294 41.168 74.7294 40.368V35.184H76.5374V40.096C76.5374 40.8853 76.7347 41.4933 77.1294 41.92C77.524 42.336 78.0627 42.544 78.7454 42.544C79.428 42.544 79.9667 42.336 80.3614 41.92C80.7667 41.4933 80.9694 40.8853 80.9694 40.096V35.184H82.7934ZM93.28 39.376C93.28 39.7067 93.2587 40.0053 93.216 40.272H86.48C86.5333 40.976 86.7947 41.5413 87.264 41.968C87.7333 42.3947 88.3093 42.608 88.992 42.608C89.9733 42.608 90.6667 42.1973 91.072 41.376H93.04C92.7733 42.1867 92.288 42.8533 91.584 43.376C90.8907 43.888 90.0267 44.144 88.992 44.144C88.1493 44.144 87.392 43.9573 86.72 43.584C86.0587 43.2 85.536 42.6667 85.152 41.984C84.7787 41.2907 84.592 40.4907 84.592 39.584C84.592 38.6773 84.7733 37.8827 85.136 37.2C85.5093 36.5067 86.0267 35.9733 86.688 35.6C87.36 35.2267 88.128 35.04 88.992 35.04C89.824 35.04 90.5653 35.2213 91.216 35.584C91.8667 35.9467 92.3733 36.4587 92.736 37.12C93.0987 37.7707 93.28 38.5227 93.28 39.376ZM91.376 38.8C91.3653 38.128 91.1253 37.5893 90.656 37.184C90.1867 36.7787 89.6053 36.576 88.912 36.576C88.2827 36.576 87.744 36.7787 87.296 37.184C86.848 37.5787 86.5813 38.1173 86.496 38.8H91.376ZM98.275 44.144C97.5817 44.144 96.9577 44.0213 96.403 43.776C95.859 43.52 95.427 43.1787 95.107 42.752C94.787 42.3147 94.6163 41.8293 94.595 41.296H96.483C96.515 41.6693 96.691 41.984 97.011 42.24C97.3417 42.4853 97.7523 42.608 98.243 42.608C98.755 42.608 99.1497 42.512 99.427 42.32C99.715 42.1173 99.859 41.8613 99.859 41.552C99.859 41.2213 99.699 40.976 99.379 40.816C99.0697 40.656 98.5737 40.48 97.891 40.288C97.2297 40.1067 96.691 39.9307 96.275 39.76C95.859 39.5893 95.4963 39.328 95.187 38.976C94.8883 38.624 94.739 38.16 94.739 37.584C94.739 37.1147 94.8777 36.688 95.155 36.304C95.4323 35.9093 95.827 35.6 96.339 35.376C96.8617 35.152 97.459 35.04 98.131 35.04C99.1337 35.04 99.939 35.296 100.547 35.808C101.166 36.3093 101.496 36.9973 101.539 37.872H99.715C99.683 37.4773 99.523 37.1627 99.235 36.928C98.947 36.6933 98.5577 36.576 98.067 36.576C97.587 36.576 97.219 36.6667 96.963 36.848C96.707 37.0293 96.579 37.2693 96.579 37.568C96.579 37.8027 96.6643 38 96.835 38.16C97.0057 38.32 97.2137 38.448 97.459 38.544C97.7043 38.6293 98.067 38.7413 98.547 38.88C99.187 39.0507 99.7097 39.2267 100.115 39.408C100.531 39.5787 100.888 39.8347 101.187 40.176C101.486 40.5173 101.64 40.9707 101.651 41.536C101.651 42.0373 101.512 42.4853 101.235 42.88C100.958 43.2747 100.563 43.584 100.051 43.808C99.5497 44.032 98.9577 44.144 98.275 44.144ZM105.75 36.672V41.552C105.75 41.8827 105.825 42.1227 105.974 42.272C106.134 42.4107 106.401 42.48 106.774 42.48H107.894V44H106.454C105.633 44 105.003 43.808 104.566 43.424C104.129 43.04 103.91 42.416 103.91 41.552V36.672H102.87V35.184H103.91V32.992H105.75V35.184H107.894V36.672H105.75ZM110.503 34.016C110.172 34.016 109.895 33.904 109.671 33.68C109.447 33.456 109.335 33.1787 109.335 32.848C109.335 32.5173 109.447 32.24 109.671 32.016C109.895 31.792 110.172 31.68 110.503 31.68C110.823 31.68 111.095 31.792 111.319 32.016C111.543 32.24 111.655 32.5173 111.655 32.848C111.655 33.1787 111.543 33.456 111.319 33.68C111.095 33.904 110.823 34.016 110.503 34.016ZM111.399 35.184V44H109.575V35.184H111.399ZM117.618 44.144C116.786 44.144 116.034 43.9573 115.362 43.584C114.69 43.2 114.162 42.6667 113.778 41.984C113.394 41.2907 113.202 40.4907 113.202 39.584C113.202 38.688 113.399 37.8933 113.794 37.2C114.188 36.5067 114.727 35.9733 115.41 35.6C116.092 35.2267 116.855 35.04 117.698 35.04C118.54 35.04 119.303 35.2267 119.986 35.6C120.668 35.9733 121.207 36.5067 121.602 37.2C121.996 37.8933 122.194 38.688 122.194 39.584C122.194 40.48 121.991 41.2747 121.586 41.968C121.18 42.6613 120.626 43.2 119.922 43.584C119.228 43.9573 118.46 44.144 117.618 44.144ZM117.618 42.56C118.087 42.56 118.524 42.448 118.93 42.224C119.346 42 119.682 41.664 119.938 41.216C120.194 40.768 120.322 40.224 120.322 39.584C120.322 38.944 120.199 38.4053 119.954 37.968C119.708 37.52 119.383 37.184 118.978 36.96C118.572 36.736 118.135 36.624 117.666 36.624C117.196 36.624 116.759 36.736 116.354 36.96C115.959 37.184 115.644 37.52 115.41 37.968C115.175 38.4053 115.058 38.944 115.058 39.584C115.058 40.5333 115.298 41.2693 115.778 41.792C116.268 42.304 116.882 42.56 117.618 42.56ZM128.445 35.04C129.138 35.04 129.757 35.184 130.301 35.472C130.856 35.76 131.288 36.1867 131.597 36.752C131.906 37.3173 132.061 38 132.061 38.8V44H130.253V39.072C130.253 38.2827 130.056 37.68 129.661 37.264C129.266 36.8373 128.728 36.624 128.045 36.624C127.362 36.624 126.818 36.8373 126.413 37.264C126.018 37.68 125.821 38.2827 125.821 39.072V44H123.997V35.184H125.821V36.192C126.12 35.8293 126.498 35.5467 126.957 35.344C127.426 35.1413 127.922 35.04 128.445 35.04ZM137.588 44.144C136.894 44.144 136.27 44.0213 135.716 43.776C135.172 43.52 134.74 43.1787 134.42 42.752C134.1 42.3147 133.929 41.8293 133.908 41.296H135.796C135.828 41.6693 136.004 41.984 136.324 42.24C136.654 42.4853 137.065 42.608 137.556 42.608C138.068 42.608 138.462 42.512 138.74 42.32C139.028 42.1173 139.172 41.8613 139.172 41.552C139.172 41.2213 139.012 40.976 138.692 40.816C138.382 40.656 137.886 40.48 137.204 40.288C136.542 40.1067 136.004 39.9307 135.588 39.76C135.172 39.5893 134.809 39.328 134.5 38.976C134.201 38.624 134.052 38.16 134.052 37.584C134.052 37.1147 134.19 36.688 134.468 36.304C134.745 35.9093 135.14 35.6 135.652 35.376C136.174 35.152 136.772 35.04 137.444 35.04C138.446 35.04 139.252 35.296 139.86 35.808C140.478 36.3093 140.809 36.9973 140.852 37.872H139.028C138.996 37.4773 138.836 37.1627 138.548 36.928C138.26 36.6933 137.87 36.576 137.38 36.576C136.9 36.576 136.532 36.6667 136.276 36.848C136.02 37.0293 135.892 37.2693 135.892 37.568C135.892 37.8027 135.977 38 136.148 38.16C136.318 38.32 136.526 38.448 136.772 38.544C137.017 38.6293 137.38 38.7413 137.86 38.88C138.5 39.0507 139.022 39.2267 139.428 39.408C139.844 39.5787 140.201 39.8347 140.5 40.176C140.798 40.5173 140.953 40.9707 140.964 41.536C140.964 42.0373 140.825 42.4853 140.548 42.88C140.27 43.2747 139.876 43.584 139.364 43.808C138.862 44.032 138.27 44.144 137.588 44.144ZM150.083 32.72C151.171 32.72 152.04 33.0187 152.691 33.616C153.352 34.2133 153.683 35.0293 153.683 36.064C153.683 37.1413 153.341 37.952 152.659 38.496C151.976 39.04 151.069 39.312 149.939 39.312L149.875 40.576H148.291L148.211 38.064H148.739C149.773 38.064 150.563 37.9253 151.107 37.648C151.661 37.3707 151.939 36.8427 151.939 36.064C151.939 35.4987 151.773 35.056 151.443 34.736C151.123 34.416 150.675 34.256 150.099 34.256C149.523 34.256 149.069 34.4107 148.739 34.72C148.408 35.0293 148.243 35.4613 148.243 36.016H146.531C146.531 35.376 146.675 34.8053 146.963 34.304C147.251 33.8027 147.661 33.4133 148.195 33.136C148.739 32.8587 149.368 32.72 150.083 32.72ZM149.059 44.112C148.728 44.112 148.451 44 148.227 43.776C148.003 43.552 147.891 43.2747 147.891 42.944C147.891 42.6133 148.003 42.336 148.227 42.112C148.451 41.888 148.728 41.776 149.059 41.776C149.379 41.776 149.651 41.888 149.875 42.112C150.099 42.336 150.211 42.6133 150.211 42.944C150.211 43.2747 150.099 43.552 149.875 43.776C149.651 44 149.379 44.112 149.059 44.112ZM26.592 62.416C26.592 61.328 26.8427 60.352 27.344 59.488C27.856 58.624 28.544 57.952 29.408 57.472C30.2827 56.9813 31.2373 56.736 32.272 56.736C33.456 56.736 34.5067 57.0293 35.424 57.616C36.352 58.192 37.024 59.0133 37.44 60.08H35.248C34.96 59.4933 34.56 59.056 34.048 58.768C33.536 58.48 32.944 58.336 32.272 58.336C31.536 58.336 30.88 58.5013 30.304 58.832C29.728 59.1627 29.2747 59.6373 28.944 60.256C28.624 60.8747 28.464 61.5947 28.464 62.416C28.464 63.2373 28.624 63.9573 28.944 64.576C29.2747 65.1947 29.728 65.6747 30.304 66.016C30.88 66.3467 31.536 66.512 32.272 66.512C32.944 66.512 33.536 66.368 34.048 66.08C34.56 65.792 34.96 65.3547 35.248 64.768H37.44C37.024 65.8347 36.352 66.656 35.424 67.232C34.5067 67.808 33.456 68.096 32.272 68.096C31.2267 68.096 30.272 67.856 29.408 67.376C28.544 66.8853 27.856 66.208 27.344 65.344C26.8427 64.48 26.592 63.504 26.592 62.416ZM41.399 56.16V68H39.575V56.16H41.399ZM44.7218 58.016C44.3911 58.016 44.1138 57.904 43.8898 57.68C43.6658 57.456 43.5538 57.1787 43.5538 56.848C43.5538 56.5173 43.6658 56.24 43.8898 56.016C44.1138 55.792 44.3911 55.68 44.7218 55.68C45.0418 55.68 45.3138 55.792 45.5378 56.016C45.7618 56.24 45.8738 56.5173 45.8738 56.848C45.8738 57.1787 45.7618 57.456 45.5378 57.68C45.3138 57.904 45.0418 58.016 44.7218 58.016ZM45.6178 59.184V68H43.7938V59.184H45.6178ZM47.4045 63.584C47.4045 62.6773 47.5858 61.8827 47.9485 61.2C48.3218 60.5067 48.8338 59.9733 49.4845 59.6C50.1352 59.2267 50.8818 59.04 51.7245 59.04C52.7912 59.04 53.6712 59.296 54.3645 59.808C55.0685 60.3093 55.5432 61.0293 55.7885 61.968H53.8205C53.6605 61.5307 53.4045 61.1893 53.0525 60.944C52.7005 60.6987 52.2578 60.576 51.7245 60.576C50.9778 60.576 50.3805 60.8427 49.9325 61.376C49.4952 61.8987 49.2765 62.6347 49.2765 63.584C49.2765 64.5333 49.4952 65.2747 49.9325 65.808C50.3805 66.3413 50.9778 66.608 51.7245 66.608C52.7805 66.608 53.4792 66.144 53.8205 65.216H55.7885C55.5325 66.112 55.0525 66.8267 54.3485 67.36C53.6445 67.8827 52.7698 68.144 51.7245 68.144C50.8818 68.144 50.1352 67.9573 49.4845 67.584C48.8338 67.2 48.3218 66.6667 47.9485 65.984C47.5858 65.2907 47.4045 64.4907 47.4045 63.584ZM61.0943 63.6L65.1583 68H62.6943L59.4303 64.208V68H57.6063V56.16H59.4303V63.04L62.6303 59.184H65.1583L61.0943 63.6ZM75.1819 59.04C75.8539 59.04 76.4512 59.184 76.9739 59.472C77.5072 59.76 77.9232 60.1867 78.2219 60.752C78.5312 61.3173 78.6859 62 78.6859 62.8V68H76.8779V63.072C76.8779 62.2827 76.6805 61.68 76.2859 61.264C75.8912 60.8373 75.3525 60.624 74.6699 60.624C73.9872 60.624 73.4432 60.8373 73.0379 61.264C72.6432 61.68 72.4459 62.2827 72.4459 63.072V68H70.6219V56.16H72.4459V60.208C72.7552 59.8347 73.1445 59.5467 73.6139 59.344C74.0939 59.1413 74.6165 59.04 75.1819 59.04ZM89.0925 63.376C89.0925 63.7067 89.0712 64.0053 89.0285 64.272H82.2925C82.3458 64.976 82.6072 65.5413 83.0765 65.968C83.5458 66.3947 84.1218 66.608 84.8045 66.608C85.7858 66.608 86.4792 66.1973 86.8845 65.376H88.8525C88.5858 66.1867 88.1005 66.8533 87.3965 67.376C86.7032 67.888 85.8392 68.144 84.8045 68.144C83.9618 68.144 83.2045 67.9573 82.5325 67.584C81.8712 67.2 81.3485 66.6667 80.9645 65.984C80.5912 65.2907 80.4045 64.4907 80.4045 63.584C80.4045 62.6773 80.5858 61.8827 80.9485 61.2C81.3218 60.5067 81.8392 59.9733 82.5005 59.6C83.1725 59.2267 83.9405 59.04 84.8045 59.04C85.6365 59.04 86.3778 59.2213 87.0285 59.584C87.6792 59.9467 88.1858 60.4587 88.5485 61.12C88.9112 61.7707 89.0925 62.5227 89.0925 63.376ZM87.1885 62.8C87.1778 62.128 86.9378 61.5893 86.4685 61.184C85.9992 60.7787 85.4178 60.576 84.7245 60.576C84.0952 60.576 83.5565 60.7787 83.1085 61.184C82.6605 61.5787 82.3938 62.1173 82.3085 62.8H87.1885ZM92.7115 60.464C92.9782 60.016 93.3302 59.6693 93.7675 59.424C94.2155 59.168 94.7435 59.04 95.3515 59.04V60.928H94.8875C94.1728 60.928 93.6288 61.1093 93.2555 61.472C92.8928 61.8347 92.7115 62.464 92.7115 63.36V68H90.8875V59.184H92.7115V60.464ZM105.108 63.376C105.108 63.7067 105.087 64.0053 105.044 64.272H98.3081C98.3615 64.976 98.6228 65.5413 99.0921 65.968C99.5615 66.3947 100.137 66.608 100.82 66.608C101.801 66.608 102.495 66.1973 102.9 65.376H104.868C104.601 66.1867 104.116 66.8533 103.412 67.376C102.719 67.888 101.855 68.144 100.82 68.144C99.9775 68.144 99.2201 67.9573 98.5481 67.584C97.8868 67.2 97.3641 66.6667 96.9801 65.984C96.6068 65.2907 96.4201 64.4907 96.4201 63.584C96.4201 62.6773 96.6015 61.8827 96.9641 61.2C97.3375 60.5067 97.8548 59.9733 98.5161 59.6C99.1881 59.2267 99.9561 59.04 100.82 59.04C101.652 59.04 102.393 59.2213 103.044 59.584C103.695 59.9467 104.201 60.4587 104.564 61.12C104.927 61.7707 105.108 62.5227 105.108 63.376ZM103.204 62.8C103.193 62.128 102.953 61.5893 102.484 61.184C102.015 60.7787 101.433 60.576 100.74 60.576C100.111 60.576 99.5721 60.7787 99.1241 61.184C98.6761 61.5787 98.4095 62.1173 98.3241 62.8H103.204ZM113.187 60.672V65.552C113.187 65.8827 113.262 66.1227 113.411 66.272C113.571 66.4107 113.838 66.48 114.211 66.48H115.331V68H113.891C113.07 68 112.441 67.808 112.003 67.424C111.566 67.04 111.347 66.416 111.347 65.552V60.672H110.307V59.184H111.347V56.992H113.187V59.184H115.331V60.672H113.187ZM120.837 68.144C120.005 68.144 119.253 67.9573 118.581 67.584C117.909 67.2 117.381 66.6667 116.997 65.984C116.613 65.2907 116.421 64.4907 116.421 63.584C116.421 62.688 116.618 61.8933 117.013 61.2C117.407 60.5067 117.946 59.9733 118.629 59.6C119.311 59.2267 120.074 59.04 120.917 59.04C121.759 59.04 122.522 59.2267 123.205 59.6C123.887 59.9733 124.426 60.5067 124.821 61.2C125.215 61.8933 125.413 62.688 125.413 63.584C125.413 64.48 125.21 65.2747 124.805 65.968C124.399 66.6613 123.845 67.2 123.141 67.584C122.447 67.9573 121.679 68.144 120.837 68.144ZM120.837 66.56C121.306 66.56 121.743 66.448 122.149 66.224C122.565 66 122.901 65.664 123.157 65.216C123.413 64.768 123.541 64.224 123.541 63.584C123.541 62.944 123.418 62.4053 123.173 61.968C122.927 61.52 122.602 61.184 122.197 60.96C121.791 60.736 121.354 60.624 120.885 60.624C120.415 60.624 119.978 60.736 119.573 60.96C119.178 61.184 118.863 61.52 118.629 61.968C118.394 62.4053 118.277 62.944 118.277 63.584C118.277 64.5333 118.517 65.2693 118.997 65.792C119.487 66.304 120.101 66.56 120.837 66.56ZM134.572 68.144C133.879 68.144 133.255 68.0213 132.7 67.776C132.156 67.52 131.724 67.1787 131.404 66.752C131.084 66.3147 130.913 65.8293 130.892 65.296H132.78C132.812 65.6693 132.988 65.984 133.308 66.24C133.639 66.4853 134.049 66.608 134.54 66.608C135.052 66.608 135.447 66.512 135.724 66.32C136.012 66.1173 136.156 65.8613 136.156 65.552C136.156 65.2213 135.996 64.976 135.676 64.816C135.367 64.656 134.871 64.48 134.188 64.288C133.527 64.1067 132.988 63.9307 132.572 63.76C132.156 63.5893 131.793 63.328 131.484 62.976C131.185 62.624 131.036 62.16 131.036 61.584C131.036 61.1147 131.175 60.688 131.452 60.304C131.729 59.9093 132.124 59.6 132.636 59.376C133.159 59.152 133.756 59.04 134.428 59.04C135.431 59.04 136.236 59.296 136.844 59.808C137.463 60.3093 137.793 60.9973 137.836 61.872H136.012C135.98 61.4773 135.82 61.1627 135.532 60.928C135.244 60.6933 134.855 60.576 134.364 60.576C133.884 60.576 133.516 60.6667 133.26 60.848C133.004 61.0293 132.876 61.2693 132.876 61.568C132.876 61.8027 132.961 62 133.132 62.16C133.303 62.32 133.511 62.448 133.756 62.544C134.001 62.6293 134.364 62.7413 134.844 62.88C135.484 63.0507 136.007 63.2267 136.412 63.408C136.828 63.5787 137.185 63.8347 137.484 64.176C137.783 64.5173 137.937 64.9707 137.948 65.536C137.948 66.0373 137.809 66.4853 137.532 66.88C137.255 67.2747 136.86 67.584 136.348 67.808C135.847 68.032 135.255 68.144 134.572 68.144ZM143.743 68.144C142.911 68.144 142.159 67.9573 141.487 67.584C140.815 67.2 140.287 66.6667 139.903 65.984C139.519 65.2907 139.327 64.4907 139.327 63.584C139.327 62.688 139.524 61.8933 139.919 61.2C140.313 60.5067 140.852 59.9733 141.535 59.6C142.217 59.2267 142.98 59.04 143.823 59.04C144.665 59.04 145.428 59.2267 146.111 59.6C146.793 59.9733 147.332 60.5067 147.727 61.2C148.121 61.8933 148.319 62.688 148.319 63.584C148.319 64.48 148.116 65.2747 147.711 65.968C147.305 66.6613 146.751 67.2 146.047 67.584C145.353 67.9573 144.585 68.144 143.743 68.144ZM143.743 66.56C144.212 66.56 144.649 66.448 145.055 66.224C145.471 66 145.807 65.664 146.063 65.216C146.319 64.768 146.447 64.224 146.447 63.584C146.447 62.944 146.324 62.4053 146.079 61.968C145.833 61.52 145.508 61.184 145.103 60.96C144.697 60.736 144.26 60.624 143.791 60.624C143.321 60.624 142.884 60.736 142.479 60.96C142.084 61.184 141.769 61.52 141.535 61.968C141.3 62.4053 141.183 62.944 141.183 63.584C141.183 64.5333 141.423 65.2693 141.903 65.792C142.393 66.304 143.007 66.56 143.743 66.56ZM151.946 56.16V68H150.122V56.16H151.946ZM157.749 66.368L160.245 59.184H162.181L158.821 68H156.645L153.301 59.184H155.253L157.749 66.368ZM171.639 63.376C171.639 63.7067 171.618 64.0053 171.575 64.272H164.839C164.893 64.976 165.154 65.5413 165.623 65.968C166.093 66.3947 166.669 66.608 167.351 66.608C168.333 66.608 169.026 66.1973 169.431 65.376H171.399C171.133 66.1867 170.647 66.8533 169.943 67.376C169.25 67.888 168.386 68.144 167.351 68.144C166.509 68.144 165.751 67.9573 165.079 67.584C164.418 67.2 163.895 66.6667 163.511 65.984C163.138 65.2907 162.951 64.4907 162.951 63.584C162.951 62.6773 163.133 61.8827 163.495 61.2C163.869 60.5067 164.386 59.9733 165.047 59.6C165.719 59.2267 166.487 59.04 167.351 59.04C168.183 59.04 168.925 59.2213 169.575 59.584C170.226 59.9467 170.733 60.4587 171.095 61.12C171.458 61.7707 171.639 62.5227 171.639 63.376ZM169.735 62.8C169.725 62.128 169.485 61.5893 169.015 61.184C168.546 60.7787 167.965 60.576 167.271 60.576C166.642 60.576 166.103 60.7787 165.655 61.184C165.207 61.5787 164.941 62.1173 164.855 62.8H169.735ZM35.136 83.184L29.728 96.144H27.84L29.632 91.856L26.16 83.184H28.192L30.672 89.904L33.248 83.184H35.136ZM40.3365 92.144C39.5045 92.144 38.7525 91.9573 38.0805 91.584C37.4085 91.2 36.8805 90.6667 36.4965 89.984C36.1125 89.2907 35.9205 88.4907 35.9205 87.584C35.9205 86.688 36.1178 85.8933 36.5125 85.2C36.9072 84.5067 37.4458 83.9733 38.1285 83.6C38.8112 83.2267 39.5738 83.04 40.4165 83.04C41.2592 83.04 42.0218 83.2267 42.7045 83.6C43.3872 83.9733 43.9258 84.5067 44.3205 85.2C44.7152 85.8933 44.9125 86.688 44.9125 87.584C44.9125 88.48 44.7098 89.2747 44.3045 89.968C43.8992 90.6613 43.3445 91.2 42.6405 91.584C41.9472 91.9573 41.1792 92.144 40.3365 92.144ZM40.3365 90.56C40.8058 90.56 41.2432 90.448 41.6485 90.224C42.0645 90 42.4005 89.664 42.6565 89.216C42.9125 88.768 43.0405 88.224 43.0405 87.584C43.0405 86.944 42.9178 86.4053 42.6725 85.968C42.4272 85.52 42.1018 85.184 41.6965 84.96C41.2912 84.736 40.8538 84.624 40.3845 84.624C39.9152 84.624 39.4778 84.736 39.0725 84.96C38.6778 85.184 38.3632 85.52 38.1285 85.968C37.8938 86.4053 37.7765 86.944 37.7765 87.584C37.7765 88.5333 38.0165 89.2693 38.4965 89.792C38.9872 90.304 39.6005 90.56 40.3365 90.56ZM54.6996 83.184V92H52.8756V90.96C52.5876 91.3227 52.209 91.6107 51.7396 91.824C51.281 92.0267 50.7903 92.128 50.2676 92.128C49.5743 92.128 48.9503 91.984 48.3956 91.696C47.8516 91.408 47.4196 90.9813 47.0996 90.416C46.7903 89.8507 46.6356 89.168 46.6356 88.368V83.184H48.4436V88.096C48.4436 88.8853 48.641 89.4933 49.0356 89.92C49.4303 90.336 49.969 90.544 50.6516 90.544C51.3343 90.544 51.873 90.336 52.2676 89.92C52.673 89.4933 52.8756 88.8853 52.8756 88.096V83.184H54.6996ZM58.9303 84.464C59.1969 84.016 59.5489 83.6693 59.9863 83.424C60.4343 83.168 60.9623 83.04 61.5703 83.04V84.928H61.1063C60.3916 84.928 59.8476 85.1093 59.4743 85.472C59.1116 85.8347 58.9303 86.464 58.9303 87.36V92H57.1063V83.184H58.9303V84.464ZM66.7951 87.552C66.7951 86.6667 66.9765 85.8827 67.3391 85.2C67.7125 84.5173 68.2138 83.9893 68.8431 83.616C69.4831 83.232 70.1925 83.04 70.9711 83.04C71.6538 83.04 72.2565 83.1787 72.7791 83.456C73.3125 83.7333 73.7231 84.0693 74.0111 84.464V83.184H75.8511V96.192H74.0111V90.72C73.7231 91.1147 73.3071 91.4507 72.7631 91.728C72.2191 92.0053 71.6005 92.144 70.9071 92.144C70.1498 92.144 69.4565 91.952 68.8271 91.568C68.2085 91.1733 67.7125 90.6293 67.3391 89.936C66.9765 89.232 66.7951 88.4373 66.7951 87.552ZM74.0111 87.584C74.0111 86.976 73.8831 86.448 73.6271 86C73.3818 85.552 73.0565 85.2107 72.6511 84.976C72.2458 84.7413 71.8085 84.624 71.3391 84.624C70.8698 84.624 70.4325 84.7413 70.0271 84.976C69.6218 85.2 69.2911 85.536 69.0351 85.984C68.7898 86.4213 68.6671 86.944 68.6671 87.552C68.6671 88.16 68.7898 88.6933 69.0351 89.152C69.2911 89.6107 69.6218 89.9627 70.0271 90.208C70.4431 90.4427 70.8805 90.56 71.3391 90.56C71.8085 90.56 72.2458 90.4427 72.6511 90.208C73.0565 89.9733 73.3818 89.632 73.6271 89.184C73.8831 88.7253 74.0111 88.192 74.0111 87.584ZM86.2309 83.184V92H84.4069V90.96C84.1189 91.3227 83.7402 91.6107 83.2709 91.824C82.8122 92.0267 82.3215 92.128 81.7989 92.128C81.1055 92.128 80.4815 91.984 79.9269 91.696C79.3829 91.408 78.9509 90.9813 78.6309 90.416C78.3215 89.8507 78.1669 89.168 78.1669 88.368V83.184H79.9749V88.096C79.9749 88.8853 80.1722 89.4933 80.5669 89.92C80.9615 90.336 81.5002 90.544 82.1829 90.544C82.8655 90.544 83.4042 90.336 83.7989 89.92C84.2042 89.4933 84.4069 88.8853 84.4069 88.096V83.184H86.2309ZM96.7175 87.376C96.7175 87.7067 96.6962 88.0053 96.6535 88.272H89.9175C89.9708 88.976 90.2322 89.5413 90.7015 89.968C91.1708 90.3947 91.7468 90.608 92.4295 90.608C93.4108 90.608 94.1042 90.1973 94.5095 89.376H96.4775C96.2108 90.1867 95.7255 90.8533 95.0215 91.376C94.3282 91.888 93.4642 92.144 92.4295 92.144C91.5868 92.144 90.8295 91.9573 90.1575 91.584C89.4962 91.2 88.9735 90.6667 88.5895 89.984C88.2162 89.2907 88.0295 88.4907 88.0295 87.584C88.0295 86.6773 88.2108 85.8827 88.5735 85.2C88.9468 84.5067 89.4642 83.9733 90.1255 83.6C90.7975 83.2267 91.5655 83.04 92.4295 83.04C93.2615 83.04 94.0028 83.2213 94.6535 83.584C95.3042 83.9467 95.8108 84.4587 96.1735 85.12C96.5362 85.7707 96.7175 86.5227 96.7175 87.376ZM94.8135 86.8C94.8028 86.128 94.5628 85.5893 94.0935 85.184C93.6242 84.7787 93.0428 84.576 92.3495 84.576C91.7202 84.576 91.1815 84.7787 90.7335 85.184C90.2855 85.5787 90.0188 86.1173 89.9335 86.8H94.8135ZM101.713 92.144C101.019 92.144 100.395 92.0213 99.8405 91.776C99.2965 91.52 98.8645 91.1787 98.5445 90.752C98.2245 90.3147 98.0538 89.8293 98.0325 89.296H99.9205C99.9525 89.6693 100.129 89.984 100.449 90.24C100.779 90.4853 101.19 90.608 101.681 90.608C102.193 90.608 102.587 90.512 102.865 90.32C103.153 90.1173 103.297 89.8613 103.297 89.552C103.297 89.2213 103.137 88.976 102.817 88.816C102.507 88.656 102.011 88.48 101.329 88.288C100.667 88.1067 100.129 87.9307 99.7125 87.76C99.2965 87.5893 98.9338 87.328 98.6245 86.976C98.3258 86.624 98.1765 86.16 98.1765 85.584C98.1765 85.1147 98.3152 84.688 98.5925 84.304C98.8698 83.9093 99.2645 83.6 99.7765 83.376C100.299 83.152 100.897 83.04 101.569 83.04C102.571 83.04 103.377 83.296 103.985 83.808C104.603 84.3093 104.934 84.9973 104.977 85.872H103.153C103.121 85.4773 102.961 85.1627 102.673 84.928C102.385 84.6933 101.995 84.576 101.505 84.576C101.025 84.576 100.657 84.6667 100.401 84.848C100.145 85.0293 100.017 85.2693 100.017 85.568C100.017 85.8027 100.102 86 100.273 86.16C100.443 86.32 100.651 86.448 100.897 86.544C101.142 86.6293 101.505 86.7413 101.985 86.88C102.625 87.0507 103.147 87.2267 103.553 87.408C103.969 87.5787 104.326 87.8347 104.625 88.176C104.923 88.5173 105.078 88.9707 105.089 89.536C105.089 90.0373 104.95 90.4853 104.673 90.88C104.395 91.2747 104.001 91.584 103.489 91.808C102.987 92.032 102.395 92.144 101.713 92.144ZM109.187 84.672V89.552C109.187 89.8827 109.262 90.1227 109.411 90.272C109.571 90.4107 109.838 90.48 110.211 90.48H111.331V92H109.891C109.07 92 108.441 91.808 108.003 91.424C107.566 91.04 107.347 90.416 107.347 89.552V84.672H106.307V83.184H107.347V80.992H109.187V83.184H111.331V84.672H109.187ZM113.941 82.016C113.61 82.016 113.333 81.904 113.109 81.68C112.885 81.456 112.773 81.1787 112.773 80.848C112.773 80.5173 112.885 80.24 113.109 80.016C113.333 79.792 113.61 79.68 113.941 79.68C114.261 79.68 114.533 79.792 114.757 80.016C114.981 80.24 115.093 80.5173 115.093 80.848C115.093 81.1787 114.981 81.456 114.757 81.68C114.533 81.904 114.261 82.016 113.941 82.016ZM114.837 83.184V92H113.013V83.184H114.837ZM121.055 92.144C120.223 92.144 119.471 91.9573 118.799 91.584C118.127 91.2 117.599 90.6667 117.215 89.984C116.831 89.2907 116.639 88.4907 116.639 87.584C116.639 86.688 116.837 85.8933 117.231 85.2C117.626 84.5067 118.165 83.9733 118.847 83.6C119.53 83.2267 120.293 83.04 121.135 83.04C121.978 83.04 122.741 83.2267 123.423 83.6C124.106 83.9733 124.645 84.5067 125.039 85.2C125.434 85.8933 125.631 86.688 125.631 87.584C125.631 88.48 125.429 89.2747 125.023 89.968C124.618 90.6613 124.063 91.2 123.359 91.584C122.666 91.9573 121.898 92.144 121.055 92.144ZM121.055 90.56C121.525 90.56 121.962 90.448 122.367 90.224C122.783 90 123.119 89.664 123.375 89.216C123.631 88.768 123.759 88.224 123.759 87.584C123.759 86.944 123.637 86.4053 123.391 85.968C123.146 85.52 122.821 85.184 122.415 84.96C122.01 84.736 121.573 84.624 121.103 84.624C120.634 84.624 120.197 84.736 119.791 84.96C119.397 85.184 119.082 85.52 118.847 85.968C118.613 86.4053 118.495 86.944 118.495 87.584C118.495 88.5333 118.735 89.2693 119.215 89.792C119.706 90.304 120.319 90.56 121.055 90.56ZM131.882 83.04C132.576 83.04 133.194 83.184 133.738 83.472C134.293 83.76 134.725 84.1867 135.034 84.752C135.344 85.3173 135.498 86 135.498 86.8V92H133.69V87.072C133.69 86.2827 133.493 85.68 133.098 85.264C132.704 84.8373 132.165 84.624 131.482 84.624C130.8 84.624 130.256 84.8373 129.85 85.264C129.456 85.68 129.258 86.2827 129.258 87.072V92H127.434V83.184H129.258V84.192C129.557 83.8293 129.936 83.5467 130.394 83.344C130.864 83.1413 131.36 83.04 131.882 83.04ZM141.025 92.144C140.332 92.144 139.708 92.0213 139.153 91.776C138.609 91.52 138.177 91.1787 137.857 90.752C137.537 90.3147 137.366 89.8293 137.345 89.296H139.233C139.265 89.6693 139.441 89.984 139.761 90.24C140.092 90.4853 140.502 90.608 140.993 90.608C141.505 90.608 141.9 90.512 142.177 90.32C142.465 90.1173 142.609 89.8613 142.609 89.552C142.609 89.2213 142.449 88.976 142.129 88.816C141.82 88.656 141.324 88.48 140.641 88.288C139.98 88.1067 139.441 87.9307 139.025 87.76C138.609 87.5893 138.246 87.328 137.937 86.976C137.638 86.624 137.489 86.16 137.489 85.584C137.489 85.1147 137.628 84.688 137.905 84.304C138.182 83.9093 138.577 83.6 139.089 83.376C139.612 83.152 140.209 83.04 140.881 83.04C141.884 83.04 142.689 83.296 143.297 83.808C143.916 84.3093 144.246 84.9973 144.289 85.872H142.465C142.433 85.4773 142.273 85.1627 141.985 84.928C141.697 84.6933 141.308 84.576 140.817 84.576C140.337 84.576 139.969 84.6667 139.713 84.848C139.457 85.0293 139.329 85.2693 139.329 85.568C139.329 85.8027 139.414 86 139.585 86.16C139.756 86.32 139.964 86.448 140.209 86.544C140.454 86.6293 140.817 86.7413 141.297 86.88C141.937 87.0507 142.46 87.2267 142.865 87.408C143.281 87.5787 143.638 87.8347 143.937 88.176C144.236 88.5173 144.39 88.9707 144.401 89.536C144.401 90.0373 144.262 90.4853 143.985 90.88C143.708 91.2747 143.313 91.584 142.801 91.808C142.3 92.032 141.708 92.144 141.025 92.144Z" fill="black"/>
</svg>
