<svg width="26" height="26" viewBox="0 0 26 26" fill="none" xmlns="http://www.w3.org/2000/svg">
<path d="M16.4883 6.5325L19.2291 4.43083L15.7733 4.33333L14.6249 1.08333L13.4766 4.33333L10.0208 4.43083L12.7616 6.5325L11.7758 9.8475L14.6249 7.88666L17.4741 9.8475L16.4883 6.5325Z" fill="black"/>
<path d="M21.2442 13.2708L23.0208 11.9167L20.7892 11.8625L20.0417 9.75L19.2942 11.8625L17.0625 11.9167L18.8392 13.2708L18.2 15.4158L20.0417 14.1483L21.8833 15.4158L21.2442 13.2708Z" fill="black"/>
<path d="M7.58333 6.5C7.58333 13.0867 12.9133 18.4167 19.5 18.4167C20.0742 18.4167 20.6375 18.3733 21.19 18.2975C19.4458 20.9733 16.4342 22.75 13 22.75C7.61583 22.75 3.25 18.3842 3.25 13C3.25 9.56583 5.02667 6.55416 7.7025 4.81C7.62667 5.3625 7.58333 5.92583 7.58333 6.5Z" stroke="black" stroke-width="2" stroke-linecap="round" stroke-linejoin="round"/>
</svg>
