<svg width="30" height="30" viewBox="0 0 30 30" fill="none" xmlns="http://www.w3.org/2000/svg">
<path d="M14.5833 0C14.9701 0 15.341 0.153645 15.6145 0.427136C15.888 0.700626 16.0417 1.07156 16.0417 1.45833V2.91667C16.0417 3.30344 15.888 3.67437 15.6145 3.94786C15.341 4.22135 14.9701 4.375 14.5833 4.375C14.1966 4.375 13.8256 4.22135 13.5521 3.94786C13.2786 3.67437 13.125 3.30344 13.125 2.91667V1.45833C13.125 1.07156 13.2786 0.700626 13.5521 0.427136C13.8256 0.153645 14.1966 0 14.5833 0ZM24.8952 4.27146C25.1686 4.54494 25.3222 4.9158 25.3222 5.3025C25.3222 5.6892 25.1686 6.06006 24.8952 6.33354L23.8642 7.36458C23.7296 7.50387 23.5687 7.61497 23.3908 7.6914C23.2129 7.76783 23.0215 7.80806 22.8279 7.80974C22.6342 7.81142 22.4422 7.77453 22.263 7.7012C22.0838 7.62787 21.9209 7.51959 21.784 7.38266C21.6471 7.24573 21.5388 7.08291 21.4655 6.90368C21.3921 6.72446 21.3552 6.53243 21.3569 6.33879C21.3586 6.14515 21.3988 5.95379 21.4753 5.77587C21.5517 5.59795 21.6628 5.43703 21.8021 5.3025L22.8331 4.27146C23.1066 3.99806 23.4775 3.84448 23.8642 3.84448C24.2509 3.84448 24.6217 3.99806 24.8952 4.27146ZM4.27146 4.27146C4.54494 3.99806 4.9158 3.84448 5.3025 3.84448C5.6892 3.84448 6.06006 3.99806 6.33354 4.27146L7.36458 5.3025C7.63023 5.57755 7.77722 5.94592 7.7739 6.32829C7.77058 6.71066 7.61721 7.07643 7.34682 7.34682C7.07643 7.61721 6.71066 7.77058 6.32829 7.7739C5.94592 7.77722 5.57755 7.63023 5.3025 7.36458L4.27146 6.33354C3.99806 6.06006 3.84448 5.6892 3.84448 5.3025C3.84448 4.9158 3.99806 4.54494 4.27146 4.27146ZM14.5833 8.75C13.0362 8.75 11.5525 9.36458 10.4585 10.4585C9.36458 11.5525 8.75 13.0362 8.75 14.5833C8.75 16.1304 9.36458 17.6142 10.4585 18.7081C11.5525 19.8021 13.0362 20.4167 14.5833 20.4167C16.1304 20.4167 17.6142 19.8021 18.7081 18.7081C19.8021 17.6142 20.4167 16.1304 20.4167 14.5833C20.4167 13.0362 19.8021 11.5525 18.7081 10.4585C17.6142 9.36458 16.1304 8.75 14.5833 8.75ZM5.83333 14.5833C5.83333 12.2627 6.75521 10.0371 8.39615 8.39615C10.0371 6.75521 12.2627 5.83333 14.5833 5.83333C16.904 5.83333 19.1296 6.75521 20.7705 8.39615C22.4115 10.0371 23.3333 12.2627 23.3333 14.5833C23.3333 16.904 22.4115 19.1296 20.7705 20.7705C19.1296 22.4115 16.904 23.3333 14.5833 23.3333C12.2627 23.3333 10.0371 22.4115 8.39615 20.7705C6.75521 19.1296 5.83333 16.904 5.83333 14.5833ZM0 14.5833C0 14.1966 0.153645 13.8256 0.427136 13.5521C0.700626 13.2786 1.07156 13.125 1.45833 13.125H2.91667C3.30344 13.125 3.67437 13.2786 3.94786 13.5521C4.22135 13.8256 4.375 14.1966 4.375 14.5833C4.375 14.9701 4.22135 15.341 3.94786 15.6145C3.67437 15.888 3.30344 16.0417 2.91667 16.0417H1.45833C1.07156 16.0417 0.700626 15.888 0.427136 15.6145C0.153645 15.341 0 14.9701 0 14.5833ZM24.7917 14.5833C24.7917 14.1966 24.9453 13.8256 25.2188 13.5521C25.4923 13.2786 25.8632 13.125 26.25 13.125H27.7083C28.0951 13.125 28.466 13.2786 28.7395 13.5521C29.013 13.8256 29.1667 14.1966 29.1667 14.5833C29.1667 14.9701 29.013 15.341 28.7395 15.6145C28.466 15.888 28.0951 16.0417 27.7083 16.0417H26.25C25.8632 16.0417 25.4923 15.888 25.2188 15.6145C24.9453 15.341 24.7917 14.9701 24.7917 14.5833ZM5.3025 21.8021C5.57755 21.5364 5.94592 21.3894 6.32829 21.3928C6.71066 21.3961 7.07643 21.5495 7.34682 21.8198C7.61721 22.0902 7.77058 22.456 7.7739 22.8384C7.77722 23.2207 7.63023 23.5891 7.36458 23.8642L6.33354 24.8952C6.0585 25.1609 5.69012 25.3078 5.30775 25.3045C4.92538 25.3012 4.55961 25.1478 4.28922 24.8774C4.01884 24.6071 3.86547 24.2413 3.86214 23.8589C3.85882 23.4765 4.00581 23.1082 4.27146 22.8331L5.3025 21.8021ZM21.8021 23.8642C21.5364 23.5891 21.3894 23.2207 21.3928 22.8384C21.3961 22.456 21.5495 22.0902 21.8198 21.8198C22.0902 21.5495 22.456 21.3961 22.8384 21.3928C23.2207 21.3894 23.5891 21.5364 23.8642 21.8021L24.8952 22.8331C25.1609 23.1082 25.3078 23.4765 25.3045 23.8589C25.3012 24.2413 25.1478 24.6071 24.8774 24.8774C24.6071 25.1478 24.2413 25.3012 23.8589 25.3045C23.4765 25.3078 23.1082 25.1609 22.8331 24.8952L21.8021 23.8642ZM14.5833 24.7917C14.9701 24.7917 15.341 24.9453 15.6145 25.2188C15.888 25.4923 16.0417 25.8632 16.0417 26.25V27.7083C16.0417 28.0951 15.888 28.466 15.6145 28.7395C15.341 29.013 14.9701 29.1667 14.5833 29.1667C14.1966 29.1667 13.8256 29.013 13.5521 28.7395C13.2786 28.466 13.125 28.0951 13.125 27.7083V26.25C13.125 25.8632 13.2786 25.4923 13.5521 25.2188C13.8256 24.9453 14.1966 24.7917 14.5833 24.7917Z" fill="black"/>
</svg>
